<?xml version="1.0" encoding="UTF-8" standalone="no"?>
<!DOCTYPE svg PUBLIC "-//W3C//DTD SVG 1.1//EN"
 "http://www.w3.org/Graphics/SVG/1.1/DTD/svg11.dtd">
<!-- Generated by graphviz version 2.47.0 (20210316.0004)
 -->
<!-- Title: dependencies Pages: 1 -->
<svg width="1571pt" height="284pt"
 viewBox="0.00 0.00 1571.00 284.00" xmlns="http://www.w3.org/2000/svg" xmlns:xlink="http://www.w3.org/1999/xlink">
<g id="graph0" class="graph" transform="scale(1 1) rotate(0) translate(4 280)">
<title>dependencies</title>
<polygon fill="white" stroke="transparent" points="-4,4 -4,-280 1567,-280 1567,4 -4,4"/>
<text text-anchor="start" x="760.51" y="-42.4" font-family="sans-serif" font-weight="bold" font-size="14.00">Legend</text>
<polygon fill="#ffffb3" stroke="transparent" points="547.5,-10 547.5,-30 567.5,-30 567.5,-10 547.5,-10"/>
<text text-anchor="start" x="571.13" y="-15.4" font-family="sans-serif" font-size="14.00"> &#160;Declarations</text>
<polygon fill="#8dd3c7" stroke="transparent" points="660.5,-10 660.5,-30 680.5,-30 680.5,-10 660.5,-10"/>
<text text-anchor="start" x="684.23" y="-15.4" font-family="sans-serif" font-size="14.00"> &#160;Module</text>
<polygon fill="#80b1d3" stroke="transparent" points="746.5,-10 746.5,-30 766.5,-30 766.5,-10 746.5,-10"/>
<text text-anchor="start" x="770.28" y="-15.4" font-family="sans-serif" font-size="14.00"> &#160;Bootstrap</text>
<polygon fill="#fdb462" stroke="transparent" points="843.5,-10 843.5,-30 863.5,-30 863.5,-10 843.5,-10"/>
<text text-anchor="start" x="867.17" y="-15.4" font-family="sans-serif" font-size="14.00"> &#160;Providers</text>
<polygon fill="#fb8072" stroke="transparent" points="939.5,-10 939.5,-30 959.5,-30 959.5,-10 939.5,-10"/>
<text text-anchor="start" x="963.23" y="-15.4" font-family="sans-serif" font-size="14.00"> &#160;Exports</text>
<g id="clust1" class="cluster">
<title>cluster_AppModule</title>
<polygon fill="none" stroke="black" stroke-dasharray="1,5" points="8,-70 8,-268 1555,-268 1555,-70 8,-70"/>
</g>
<g id="clust15" class="cluster">
<title>cluster_AppModule_bootstrap</title>
<polygon fill="none" stroke="black" points="704,-208 704,-260 828,-260 828,-208 704,-208"/>
</g>
<g id="clust13" class="cluster">
<title>cluster_AppModule_imports</title>
<polygon fill="none" stroke="black" points="1403,-78 1403,-130 1547,-130 1547,-78 1403,-78"/>
</g>
<g id="clust2" class="cluster">
<title>cluster_AppModule_declarations</title>
<polygon fill="none" stroke="black" points="16,-78 16,-130 1395,-130 1395,-78 16,-78"/>
</g>
<!-- AboutMeComponent -->
<g id="node1" class="node">
<title>AboutMeComponent</title>
<polygon fill="#ffffb3" stroke="black" points="1387.49,-122 1252.51,-122 1252.51,-86 1387.49,-86 1387.49,-122"/>
<text text-anchor="middle" x="1320" y="-99.8" font-family="Times,serif" font-size="14.00">AboutMeComponent</text>
</g>
<!-- AppModule -->
<g id="node11" class="node">
<title>AppModule</title>
<polygon fill="#8dd3c7" stroke="black" points="807.66,-187 804.66,-191 783.66,-191 780.66,-187 724.34,-187 724.34,-151 807.66,-151 807.66,-187"/>
<text text-anchor="middle" x="766" y="-164.8" font-family="Times,serif" font-size="14.00">AppModule</text>
</g>
<!-- AboutMeComponent&#45;&gt;AppModule -->
<g id="edge1" class="edge">
<title>AboutMeComponent&#45;&gt;AppModule</title>
<path fill="none" stroke="black" d="M1320,-122.28C1320,-143.32 1320,-175 1320,-175 1320,-175 818.09,-175 818.09,-175"/>
<polygon fill="black" stroke="black" points="818.09,-171.5 808.09,-175 818.09,-178.5 818.09,-171.5"/>
</g>
<!-- AppComponent -->
<g id="node2" class="node">
<title>AppComponent</title>
<polygon fill="#ffffb3" stroke="black" points="1234.94,-122 1129.06,-122 1129.06,-86 1234.94,-86 1234.94,-122"/>
<text text-anchor="middle" x="1182" y="-99.8" font-family="Times,serif" font-size="14.00">AppComponent</text>
</g>
<!-- AppComponent&#45;&gt;AppModule -->
<g id="edge2" class="edge">
<title>AppComponent&#45;&gt;AppModule</title>
<path fill="none" stroke="black" d="M1182,-122.11C1182,-141.34 1182,-169 1182,-169 1182,-169 817.79,-169 817.79,-169"/>
<polygon fill="black" stroke="black" points="817.79,-165.5 807.79,-169 817.79,-172.5 817.79,-165.5"/>
</g>
<!-- CustomListComponent -->
<g id="node3" class="node">
<title>CustomListComponent</title>
<polygon fill="#ffffb3" stroke="black" points="1111.17,-122 964.83,-122 964.83,-86 1111.17,-86 1111.17,-122"/>
<text text-anchor="middle" x="1038" y="-99.8" font-family="Times,serif" font-size="14.00">CustomListComponent</text>
</g>
<!-- CustomListComponent&#45;&gt;AppModule -->
<g id="edge3" class="edge">
<title>CustomListComponent&#45;&gt;AppModule</title>
<path fill="none" stroke="black" d="M1038,-122.02C1038,-139.37 1038,-163 1038,-163 1038,-163 817.9,-163 817.9,-163"/>
<polygon fill="black" stroke="black" points="817.9,-159.5 807.9,-163 817.9,-166.5 817.9,-159.5"/>
</g>
<!-- HomeComponent -->
<g id="node4" class="node">
<title>HomeComponent</title>
<polygon fill="#ffffb3" stroke="black" points="946.55,-122 831.45,-122 831.45,-86 946.55,-86 946.55,-122"/>
<text text-anchor="middle" x="889" y="-99.8" font-family="Times,serif" font-size="14.00">HomeComponent</text>
</g>
<!-- HomeComponent&#45;&gt;AppModule -->
<g id="edge4" class="edge">
<title>HomeComponent&#45;&gt;AppModule</title>
<path fill="none" stroke="black" d="M889,-122.24C889,-137.57 889,-157 889,-157 889,-157 817.99,-157 817.99,-157"/>
<polygon fill="black" stroke="black" points="817.99,-153.5 807.99,-157 817.99,-160.5 817.99,-153.5"/>
</g>
<!-- LinkDirective -->
<g id="node5" class="node">
<title>LinkDirective</title>
<polygon fill="#ffffb3" stroke="black" points="813.03,-122 718.97,-122 718.97,-86 813.03,-86 813.03,-122"/>
<text text-anchor="middle" x="766" y="-99.8" font-family="Times,serif" font-size="14.00">LinkDirective</text>
</g>
<!-- LinkDirective&#45;&gt;AppModule -->
<g id="edge5" class="edge">
<title>LinkDirective&#45;&gt;AppModule</title>
<path fill="none" stroke="black" d="M766,-122.11C766,-122.11 766,-140.99 766,-140.99"/>
<polygon fill="black" stroke="black" points="762.5,-140.99 766,-150.99 769.5,-140.99 762.5,-140.99"/>
</g>
<!-- ProjectsComponent -->
<g id="node6" class="node">
<title>ProjectsComponent</title>
<polygon fill="#ffffb3" stroke="black" points="701.43,-122 574.57,-122 574.57,-86 701.43,-86 701.43,-122"/>
<text text-anchor="middle" x="638" y="-99.8" font-family="Times,serif" font-size="14.00">ProjectsComponent</text>
</g>
<!-- ProjectsComponent&#45;&gt;AppModule -->
<g id="edge6" class="edge">
<title>ProjectsComponent&#45;&gt;AppModule</title>
<path fill="none" stroke="black" d="M638,-122.24C638,-137.57 638,-157 638,-157 638,-157 714.09,-157 714.09,-157"/>
<polygon fill="black" stroke="black" points="714.09,-160.5 724.09,-157 714.09,-153.5 714.09,-160.5"/>
</g>
<!-- SelectItemDirective -->
<g id="node7" class="node">
<title>SelectItemDirective</title>
<polygon fill="#ffffb3" stroke="black" points="556.95,-122 429.05,-122 429.05,-86 556.95,-86 556.95,-122"/>
<text text-anchor="middle" x="493" y="-99.8" font-family="Times,serif" font-size="14.00">SelectItemDirective</text>
</g>
<!-- SelectItemDirective&#45;&gt;AppModule -->
<g id="edge7" class="edge">
<title>SelectItemDirective&#45;&gt;AppModule</title>
<path fill="none" stroke="black" d="M493,-122.02C493,-139.37 493,-163 493,-163 493,-163 714.24,-163 714.24,-163"/>
<polygon fill="black" stroke="black" points="714.24,-166.5 724.24,-163 714.24,-159.5 714.24,-166.5"/>
</g>
<!-- SidebarComponent -->
<g id="node8" class="node">
<title>SidebarComponent</title>
<polygon fill="#ffffb3" stroke="black" points="411.1,-122 286.9,-122 286.9,-86 411.1,-86 411.1,-122"/>
<text text-anchor="middle" x="349" y="-99.8" font-family="Times,serif" font-size="14.00">SidebarComponent</text>
</g>
<!-- SidebarComponent&#45;&gt;AppModule -->
<g id="edge8" class="edge">
<title>SidebarComponent&#45;&gt;AppModule</title>
<path fill="none" stroke="black" d="M349,-122.11C349,-141.34 349,-169 349,-169 349,-169 714.11,-169 714.11,-169"/>
<polygon fill="black" stroke="black" points="714.11,-172.5 724.11,-169 714.11,-165.5 714.11,-172.5"/>
</g>
<!-- SkillsComponent -->
<g id="node9" class="node">
<title>SkillsComponent</title>
<polygon fill="#ffffb3" stroke="black" points="268.73,-122 155.27,-122 155.27,-86 268.73,-86 268.73,-122"/>
<text text-anchor="middle" x="212" y="-99.8" font-family="Times,serif" font-size="14.00">SkillsComponent</text>
</g>
<!-- SkillsComponent&#45;&gt;AppModule -->
<g id="edge9" class="edge">
<title>SkillsComponent&#45;&gt;AppModule</title>
<path fill="none" stroke="black" d="M212,-122.28C212,-143.32 212,-175 212,-175 212,-175 713.91,-175 713.91,-175"/>
<polygon fill="black" stroke="black" points="713.91,-178.5 723.91,-175 713.91,-171.5 713.91,-178.5"/>
</g>
<!-- WorkComponent -->
<g id="node10" class="node">
<title>WorkComponent</title>
<polygon fill="#ffffb3" stroke="black" points="137.71,-122 24.29,-122 24.29,-86 137.71,-86 137.71,-122"/>
<text text-anchor="middle" x="81" y="-99.8" font-family="Times,serif" font-size="14.00">WorkComponent</text>
</g>
<!-- WorkComponent&#45;&gt;AppModule -->
<g id="edge10" class="edge">
<title>WorkComponent&#45;&gt;AppModule</title>
<path fill="none" stroke="black" d="M81,-122.25C81,-145.02 81,-181 81,-181 81,-181 714.18,-181 714.18,-181"/>
<polygon fill="black" stroke="black" points="714.18,-184.5 724.18,-181 714.18,-177.5 714.18,-184.5"/>
</g>
<!-- AppComponent  -->
<g id="node13" class="node">
<title>AppComponent </title>
<polygon fill="#80b1d3" stroke="black" points="820.44,-252 711.56,-252 711.56,-216 820.44,-216 820.44,-252"/>
<text text-anchor="middle" x="766" y="-229.8" font-family="Times,serif" font-size="14.00">AppComponent </text>
</g>
<!-- AppModule&#45;&gt;AppComponent  -->
<g id="edge12" class="edge">
<title>AppModule&#45;&gt;AppComponent </title>
<path fill="none" stroke="black" stroke-dasharray="1,5" d="M766,-187.11C766,-187.11 766,-205.99 766,-205.99"/>
<polygon fill="black" stroke="black" points="762.5,-205.99 766,-215.99 769.5,-205.99 762.5,-205.99"/>
</g>
<!-- AppRoutingModule -->
<g id="node12" class="node">
<title>AppRoutingModule</title>
<polygon fill="#8dd3c7" stroke="black" points="1539.27,-122 1536.27,-126 1515.27,-126 1512.27,-122 1410.73,-122 1410.73,-86 1539.27,-86 1539.27,-122"/>
<text text-anchor="middle" x="1475" y="-99.8" font-family="Times,serif" font-size="14.00">AppRoutingModule</text>
</g>
<!-- AppRoutingModule&#45;&gt;AppModule -->
<g id="edge11" class="edge">
<title>AppRoutingModule&#45;&gt;AppModule</title>
<path fill="none" stroke="black" d="M1475,-122.25C1475,-145.02 1475,-181 1475,-181 1475,-181 817.7,-181 817.7,-181"/>
<polygon fill="black" stroke="black" points="817.7,-177.5 807.7,-181 817.7,-184.5 817.7,-177.5"/>
</g>
</g>
</svg>
