<?xml version="1.0" encoding="UTF-8" standalone="no"?>
<!DOCTYPE svg PUBLIC "-//W3C//DTD SVG 1.1//EN"
 "http://www.w3.org/Graphics/SVG/1.1/DTD/svg11.dtd">
<!-- Generated by graphviz version 2.47.0 (20210316.0004)
 -->
<!-- Title: dependencies Pages: 1 -->
<svg width="1714pt" height="284pt"
 viewBox="0.00 0.00 1714.00 284.00" xmlns="http://www.w3.org/2000/svg" xmlns:xlink="http://www.w3.org/1999/xlink">
<g id="graph0" class="graph" transform="scale(1 1) rotate(0) translate(4 280)">
<title>dependencies</title>
<polygon fill="white" stroke="transparent" points="-4,4 -4,-280 1710,-280 1710,4 -4,4"/>
<text text-anchor="start" x="832.01" y="-42.4" font-family="sans-serif" font-weight="bold" font-size="14.00">Legend</text>
<polygon fill="#ffffb3" stroke="transparent" points="619,-10 619,-30 639,-30 639,-10 619,-10"/>
<text text-anchor="start" x="642.63" y="-15.4" font-family="sans-serif" font-size="14.00"> &#160;Declarations</text>
<polygon fill="#8dd3c7" stroke="transparent" points="732,-10 732,-30 752,-30 752,-10 732,-10"/>
<text text-anchor="start" x="755.73" y="-15.4" font-family="sans-serif" font-size="14.00"> &#160;Module</text>
<polygon fill="#80b1d3" stroke="transparent" points="818,-10 818,-30 838,-30 838,-10 818,-10"/>
<text text-anchor="start" x="841.78" y="-15.4" font-family="sans-serif" font-size="14.00"> &#160;Bootstrap</text>
<polygon fill="#fdb462" stroke="transparent" points="915,-10 915,-30 935,-30 935,-10 915,-10"/>
<text text-anchor="start" x="938.67" y="-15.4" font-family="sans-serif" font-size="14.00"> &#160;Providers</text>
<polygon fill="#fb8072" stroke="transparent" points="1011,-10 1011,-30 1031,-30 1031,-10 1011,-10"/>
<text text-anchor="start" x="1034.73" y="-15.4" font-family="sans-serif" font-size="14.00"> &#160;Exports</text>
<g id="clust1" class="cluster">
<title>cluster_AppModule</title>
<polygon fill="none" stroke="black" stroke-dasharray="1,5" points="8,-70 8,-268 1698,-268 1698,-70 8,-70"/>
</g>
<g id="clust14" class="cluster">
<title>cluster_AppModule_imports</title>
<polygon fill="none" stroke="black" points="1546,-78 1546,-130 1690,-130 1690,-78 1546,-78"/>
</g>
<g id="clust16" class="cluster">
<title>cluster_AppModule_bootstrap</title>
<polygon fill="none" stroke="black" points="765,-208 765,-260 889,-260 889,-208 765,-208"/>
</g>
<g id="clust2" class="cluster">
<title>cluster_AppModule_declarations</title>
<polygon fill="none" stroke="black" points="16,-78 16,-130 1538,-130 1538,-78 16,-78"/>
</g>
<!-- AboutMeComponent -->
<g id="node1" class="node">
<title>AboutMeComponent</title>
<polygon fill="#ffffb3" stroke="black" points="1530.49,-122 1395.51,-122 1395.51,-86 1530.49,-86 1530.49,-122"/>
<text text-anchor="middle" x="1463" y="-99.8" font-family="Times,serif" font-size="14.00">AboutMeComponent</text>
</g>
<!-- AppModule -->
<g id="node12" class="node">
<title>AppModule</title>
<polygon fill="#8dd3c7" stroke="black" points="868.66,-187 865.66,-191 844.66,-191 841.66,-187 785.34,-187 785.34,-151 868.66,-151 868.66,-187"/>
<text text-anchor="middle" x="827" y="-164.8" font-family="Times,serif" font-size="14.00">AppModule</text>
</g>
<!-- AboutMeComponent&#45;&gt;AppModule -->
<g id="edge1" class="edge">
<title>AboutMeComponent&#45;&gt;AppModule</title>
<path fill="none" stroke="black" d="M1463,-122.28C1463,-143.32 1463,-175 1463,-175 1463,-175 878.73,-175 878.73,-175"/>
<polygon fill="black" stroke="black" points="878.73,-171.5 868.73,-175 878.73,-178.5 878.73,-171.5"/>
</g>
<!-- AppComponent -->
<g id="node2" class="node">
<title>AppComponent</title>
<polygon fill="#ffffb3" stroke="black" points="1377.94,-122 1272.06,-122 1272.06,-86 1377.94,-86 1377.94,-122"/>
<text text-anchor="middle" x="1325" y="-99.8" font-family="Times,serif" font-size="14.00">AppComponent</text>
</g>
<!-- AppComponent&#45;&gt;AppModule -->
<g id="edge2" class="edge">
<title>AppComponent&#45;&gt;AppModule</title>
<path fill="none" stroke="black" d="M1325,-122.11C1325,-141.34 1325,-169 1325,-169 1325,-169 879.03,-169 879.03,-169"/>
<polygon fill="black" stroke="black" points="879.03,-165.5 869.03,-169 879.03,-172.5 879.03,-165.5"/>
</g>
<!-- ContactComponent -->
<g id="node3" class="node">
<title>ContactComponent</title>
<polygon fill="#ffffb3" stroke="black" points="1254.38,-122 1129.62,-122 1129.62,-86 1254.38,-86 1254.38,-122"/>
<text text-anchor="middle" x="1192" y="-99.8" font-family="Times,serif" font-size="14.00">ContactComponent</text>
</g>
<!-- ContactComponent&#45;&gt;AppModule -->
<g id="edge3" class="edge">
<title>ContactComponent&#45;&gt;AppModule</title>
<path fill="none" stroke="black" d="M1192,-122.02C1192,-139.37 1192,-163 1192,-163 1192,-163 878.87,-163 878.87,-163"/>
<polygon fill="black" stroke="black" points="878.87,-159.5 868.87,-163 878.87,-166.5 878.87,-159.5"/>
</g>
<!-- CustomListComponent -->
<g id="node4" class="node">
<title>CustomListComponent</title>
<polygon fill="#ffffb3" stroke="black" points="1111.17,-122 964.83,-122 964.83,-86 1111.17,-86 1111.17,-122"/>
<text text-anchor="middle" x="1038" y="-99.8" font-family="Times,serif" font-size="14.00">CustomListComponent</text>
</g>
<!-- CustomListComponent&#45;&gt;AppModule -->
<g id="edge4" class="edge">
<title>CustomListComponent&#45;&gt;AppModule</title>
<path fill="none" stroke="black" d="M1038,-122.24C1038,-137.57 1038,-157 1038,-157 1038,-157 878.69,-157 878.69,-157"/>
<polygon fill="black" stroke="black" points="878.69,-153.5 868.69,-157 878.69,-160.5 878.69,-153.5"/>
</g>
<!-- HomeComponent -->
<g id="node5" class="node">
<title>HomeComponent</title>
<polygon fill="#ffffb3" stroke="black" points="946.55,-122 831.45,-122 831.45,-86 946.55,-86 946.55,-122"/>
<text text-anchor="middle" x="889" y="-99.8" font-family="Times,serif" font-size="14.00">HomeComponent</text>
</g>
<!-- HomeComponent&#45;&gt;AppModule -->
<g id="edge5" class="edge">
<title>HomeComponent&#45;&gt;AppModule</title>
<path fill="none" stroke="black" d="M850.03,-122.11C850.03,-122.11 850.03,-140.99 850.03,-140.99"/>
<polygon fill="black" stroke="black" points="846.53,-140.99 850.03,-150.99 853.53,-140.99 846.53,-140.99"/>
</g>
<!-- LinkDirective -->
<g id="node6" class="node">
<title>LinkDirective</title>
<polygon fill="#ffffb3" stroke="black" points="813.03,-122 718.97,-122 718.97,-86 813.03,-86 813.03,-122"/>
<text text-anchor="middle" x="766" y="-99.8" font-family="Times,serif" font-size="14.00">LinkDirective</text>
</g>
<!-- LinkDirective&#45;&gt;AppModule -->
<g id="edge6" class="edge">
<title>LinkDirective&#45;&gt;AppModule</title>
<path fill="none" stroke="black" d="M799.22,-122.11C799.22,-122.11 799.22,-140.99 799.22,-140.99"/>
<polygon fill="black" stroke="black" points="795.72,-140.99 799.22,-150.99 802.72,-140.99 795.72,-140.99"/>
</g>
<!-- ProjectsComponent -->
<g id="node7" class="node">
<title>ProjectsComponent</title>
<polygon fill="#ffffb3" stroke="black" points="701.43,-122 574.57,-122 574.57,-86 701.43,-86 701.43,-122"/>
<text text-anchor="middle" x="638" y="-99.8" font-family="Times,serif" font-size="14.00">ProjectsComponent</text>
</g>
<!-- ProjectsComponent&#45;&gt;AppModule -->
<g id="edge7" class="edge">
<title>ProjectsComponent&#45;&gt;AppModule</title>
<path fill="none" stroke="black" d="M638,-122.24C638,-137.57 638,-157 638,-157 638,-157 775.05,-157 775.05,-157"/>
<polygon fill="black" stroke="black" points="775.05,-160.5 785.05,-157 775.05,-153.5 775.05,-160.5"/>
</g>
<!-- SelectItemDirective -->
<g id="node8" class="node">
<title>SelectItemDirective</title>
<polygon fill="#ffffb3" stroke="black" points="556.95,-122 429.05,-122 429.05,-86 556.95,-86 556.95,-122"/>
<text text-anchor="middle" x="493" y="-99.8" font-family="Times,serif" font-size="14.00">SelectItemDirective</text>
</g>
<!-- SelectItemDirective&#45;&gt;AppModule -->
<g id="edge8" class="edge">
<title>SelectItemDirective&#45;&gt;AppModule</title>
<path fill="none" stroke="black" d="M493,-122.02C493,-139.37 493,-163 493,-163 493,-163 775.04,-163 775.04,-163"/>
<polygon fill="black" stroke="black" points="775.04,-166.5 785.04,-163 775.04,-159.5 775.04,-166.5"/>
</g>
<!-- SidebarComponent -->
<g id="node9" class="node">
<title>SidebarComponent</title>
<polygon fill="#ffffb3" stroke="black" points="411.1,-122 286.9,-122 286.9,-86 411.1,-86 411.1,-122"/>
<text text-anchor="middle" x="349" y="-99.8" font-family="Times,serif" font-size="14.00">SidebarComponent</text>
</g>
<!-- SidebarComponent&#45;&gt;AppModule -->
<g id="edge9" class="edge">
<title>SidebarComponent&#45;&gt;AppModule</title>
<path fill="none" stroke="black" d="M349,-122.11C349,-141.34 349,-169 349,-169 349,-169 775,-169 775,-169"/>
<polygon fill="black" stroke="black" points="775,-172.5 785,-169 775,-165.5 775,-172.5"/>
</g>
<!-- SkillsComponent -->
<g id="node10" class="node">
<title>SkillsComponent</title>
<polygon fill="#ffffb3" stroke="black" points="268.73,-122 155.27,-122 155.27,-86 268.73,-86 268.73,-122"/>
<text text-anchor="middle" x="212" y="-99.8" font-family="Times,serif" font-size="14.00">SkillsComponent</text>
</g>
<!-- SkillsComponent&#45;&gt;AppModule -->
<g id="edge10" class="edge">
<title>SkillsComponent&#45;&gt;AppModule</title>
<path fill="none" stroke="black" d="M212,-122.28C212,-143.32 212,-175 212,-175 212,-175 775.21,-175 775.21,-175"/>
<polygon fill="black" stroke="black" points="775.21,-178.5 785.21,-175 775.21,-171.5 775.21,-178.5"/>
</g>
<!-- WorkComponent -->
<g id="node11" class="node">
<title>WorkComponent</title>
<polygon fill="#ffffb3" stroke="black" points="137.71,-122 24.29,-122 24.29,-86 137.71,-86 137.71,-122"/>
<text text-anchor="middle" x="81" y="-99.8" font-family="Times,serif" font-size="14.00">WorkComponent</text>
</g>
<!-- WorkComponent&#45;&gt;AppModule -->
<g id="edge11" class="edge">
<title>WorkComponent&#45;&gt;AppModule</title>
<path fill="none" stroke="black" d="M81,-122.25C81,-145.02 81,-181 81,-181 81,-181 775.29,-181 775.29,-181"/>
<polygon fill="black" stroke="black" points="775.29,-184.5 785.29,-181 775.29,-177.5 775.29,-184.5"/>
</g>
<!-- AppComponent  -->
<g id="node14" class="node">
<title>AppComponent </title>
<polygon fill="#80b1d3" stroke="black" points="881.44,-252 772.56,-252 772.56,-216 881.44,-216 881.44,-252"/>
<text text-anchor="middle" x="827" y="-229.8" font-family="Times,serif" font-size="14.00">AppComponent </text>
</g>
<!-- AppModule&#45;&gt;AppComponent  -->
<g id="edge13" class="edge">
<title>AppModule&#45;&gt;AppComponent </title>
<path fill="none" stroke="black" stroke-dasharray="1,5" d="M827,-187.11C827,-187.11 827,-205.99 827,-205.99"/>
<polygon fill="black" stroke="black" points="823.5,-205.99 827,-215.99 830.5,-205.99 823.5,-205.99"/>
</g>
<!-- AppRoutingModule -->
<g id="node13" class="node">
<title>AppRoutingModule</title>
<polygon fill="#8dd3c7" stroke="black" points="1682.27,-122 1679.27,-126 1658.27,-126 1655.27,-122 1553.73,-122 1553.73,-86 1682.27,-86 1682.27,-122"/>
<text text-anchor="middle" x="1618" y="-99.8" font-family="Times,serif" font-size="14.00">AppRoutingModule</text>
</g>
<!-- AppRoutingModule&#45;&gt;AppModule -->
<g id="edge12" class="edge">
<title>AppRoutingModule&#45;&gt;AppModule</title>
<path fill="none" stroke="black" d="M1618,-122.25C1618,-145.02 1618,-181 1618,-181 1618,-181 878.69,-181 878.69,-181"/>
<polygon fill="black" stroke="black" points="878.69,-177.5 868.69,-181 878.69,-184.5 878.69,-177.5"/>
</g>
</g>
</svg>
