<?xml version="1.0" encoding="UTF-8" standalone="no"?>
<!DOCTYPE svg PUBLIC "-//W3C//DTD SVG 1.1//EN"
 "http://www.w3.org/Graphics/SVG/1.1/DTD/svg11.dtd">
<!-- Generated by graphviz version 2.47.0 (20210316.0004)
 -->
<!-- Title: dependencies Pages: 1 -->
<svg width="1714pt" height="284pt"
 viewBox="0.00 0.00 1714.00 284.00" xmlns="http://www.w3.org/2000/svg" xmlns:xlink="http://www.w3.org/1999/xlink">
<g id="graph0" class="graph" transform="scale(1 1) rotate(0) translate(4 280)">
<title>dependencies</title>
<polygon fill="white" stroke="transparent" points="-4,4 -4,-280 1710,-280 1710,4 -4,4"/>
<text text-anchor="start" x="832.01" y="-42.4" font-family="sans-serif" font-weight="bold" font-size="14.00">Legend</text>
<polygon fill="#ffffb3" stroke="transparent" points="619,-10 619,-30 639,-30 639,-10 619,-10"/>
<text text-anchor="start" x="642.63" y="-15.4" font-family="sans-serif" font-size="14.00"> &#160;Declarations</text>
<polygon fill="#8dd3c7" stroke="transparent" points="732,-10 732,-30 752,-30 752,-10 732,-10"/>
<text text-anchor="start" x="755.73" y="-15.4" font-family="sans-serif" font-size="14.00"> &#160;Module</text>
<polygon fill="#80b1d3" stroke="transparent" points="818,-10 818,-30 838,-30 838,-10 818,-10"/>
<text text-anchor="start" x="841.78" y="-15.4" font-family="sans-serif" font-size="14.00"> &#160;Bootstrap</text>
<polygon fill="#fdb462" stroke="transparent" points="915,-10 915,-30 935,-30 935,-10 915,-10"/>
<text text-anchor="start" x="938.67" y="-15.4" font-family="sans-serif" font-size="14.00"> &#160;Providers</text>
<polygon fill="#fb8072" stroke="transparent" points="1011,-10 1011,-30 1031,-30 1031,-10 1011,-10"/>
<text text-anchor="start" x="1034.73" y="-15.4" font-family="sans-serif" font-size="14.00"> &#160;Exports</text>
<g id="clust1" class="cluster">
<title>cluster_AppModule</title>
<polygon fill="none" stroke="black" stroke-dasharray="1,5" points="8,-70 8,-268 1698,-268 1698,-70 8,-70"/>
</g>
<g id="clust2" class="cluster">
<title>cluster_AppModule_declarations</title>
<polygon fill="none" stroke="black" points="168,-78 168,-130 1690,-130 1690,-78 168,-78"/>
</g>
<g id="clust14" class="cluster">
<title>cluster_AppModule_imports</title>
<polygon fill="none" stroke="black" points="16,-78 16,-130 160,-130 160,-78 16,-78"/>
</g>
<g id="clust16" class="cluster">
<title>cluster_AppModule_bootstrap</title>
<polygon fill="none" stroke="black" points="792,-208 792,-260 916,-260 916,-208 792,-208"/>
</g>
<!-- AboutMeComponent -->
<g id="node1" class="node">
<title>AboutMeComponent</title>
<polygon fill="#ffffb3" stroke="black" points="1682.49,-122 1547.51,-122 1547.51,-86 1682.49,-86 1682.49,-122"/>
<text text-anchor="middle" x="1615" y="-99.8" font-family="Times,serif" font-size="14.00">AboutMeComponent</text>
</g>
<!-- AppModule -->
<g id="node12" class="node">
<title>AppModule</title>
<polygon fill="#8dd3c7" stroke="black" points="895.66,-187 892.66,-191 871.66,-191 868.66,-187 812.34,-187 812.34,-151 895.66,-151 895.66,-187"/>
<text text-anchor="middle" x="854" y="-164.8" font-family="Times,serif" font-size="14.00">AppModule</text>
</g>
<!-- AboutMeComponent&#45;&gt;AppModule -->
<g id="edge1" class="edge">
<title>AboutMeComponent&#45;&gt;AppModule</title>
<path fill="none" stroke="black" d="M1615,-122.25C1615,-145.02 1615,-181 1615,-181 1615,-181 905.73,-181 905.73,-181"/>
<polygon fill="black" stroke="black" points="905.73,-177.5 895.73,-181 905.73,-184.5 905.73,-177.5"/>
</g>
<!-- AppComponent -->
<g id="node2" class="node">
<title>AppComponent</title>
<polygon fill="#ffffb3" stroke="black" points="1529.94,-122 1424.06,-122 1424.06,-86 1529.94,-86 1529.94,-122"/>
<text text-anchor="middle" x="1477" y="-99.8" font-family="Times,serif" font-size="14.00">AppComponent</text>
</g>
<!-- AppComponent&#45;&gt;AppModule -->
<g id="edge2" class="edge">
<title>AppComponent&#45;&gt;AppModule</title>
<path fill="none" stroke="black" d="M1477,-122.28C1477,-143.32 1477,-175 1477,-175 1477,-175 905.84,-175 905.84,-175"/>
<polygon fill="black" stroke="black" points="905.84,-171.5 895.84,-175 905.84,-178.5 905.84,-171.5"/>
</g>
<!-- ContactComponent -->
<g id="node3" class="node">
<title>ContactComponent</title>
<polygon fill="#ffffb3" stroke="black" points="1406.38,-122 1281.62,-122 1281.62,-86 1406.38,-86 1406.38,-122"/>
<text text-anchor="middle" x="1344" y="-99.8" font-family="Times,serif" font-size="14.00">ContactComponent</text>
</g>
<!-- ContactComponent&#45;&gt;AppModule -->
<g id="edge3" class="edge">
<title>ContactComponent&#45;&gt;AppModule</title>
<path fill="none" stroke="black" d="M1344,-122.11C1344,-141.34 1344,-169 1344,-169 1344,-169 905.78,-169 905.78,-169"/>
<polygon fill="black" stroke="black" points="905.78,-165.5 895.78,-169 905.78,-172.5 905.78,-165.5"/>
</g>
<!-- CustomListComponent -->
<g id="node4" class="node">
<title>CustomListComponent</title>
<polygon fill="#ffffb3" stroke="black" points="1263.17,-122 1116.83,-122 1116.83,-86 1263.17,-86 1263.17,-122"/>
<text text-anchor="middle" x="1190" y="-99.8" font-family="Times,serif" font-size="14.00">CustomListComponent</text>
</g>
<!-- CustomListComponent&#45;&gt;AppModule -->
<g id="edge4" class="edge">
<title>CustomListComponent&#45;&gt;AppModule</title>
<path fill="none" stroke="black" d="M1190,-122.02C1190,-139.37 1190,-163 1190,-163 1190,-163 905.88,-163 905.88,-163"/>
<polygon fill="black" stroke="black" points="905.88,-159.5 895.88,-163 905.88,-166.5 905.88,-159.5"/>
</g>
<!-- HomeComponent -->
<g id="node5" class="node">
<title>HomeComponent</title>
<polygon fill="#ffffb3" stroke="black" points="1098.55,-122 983.45,-122 983.45,-86 1098.55,-86 1098.55,-122"/>
<text text-anchor="middle" x="1041" y="-99.8" font-family="Times,serif" font-size="14.00">HomeComponent</text>
</g>
<!-- HomeComponent&#45;&gt;AppModule -->
<g id="edge5" class="edge">
<title>HomeComponent&#45;&gt;AppModule</title>
<path fill="none" stroke="black" d="M1041,-122.24C1041,-137.57 1041,-157 1041,-157 1041,-157 905.97,-157 905.97,-157"/>
<polygon fill="black" stroke="black" points="905.97,-153.5 895.97,-157 905.97,-160.5 905.97,-153.5"/>
</g>
<!-- LinkDirective -->
<g id="node6" class="node">
<title>LinkDirective</title>
<polygon fill="#ffffb3" stroke="black" points="965.03,-122 870.97,-122 870.97,-86 965.03,-86 965.03,-122"/>
<text text-anchor="middle" x="918" y="-99.8" font-family="Times,serif" font-size="14.00">LinkDirective</text>
</g>
<!-- LinkDirective&#45;&gt;AppModule -->
<g id="edge6" class="edge">
<title>LinkDirective&#45;&gt;AppModule</title>
<path fill="none" stroke="black" d="M883.28,-122.11C883.28,-122.11 883.28,-140.99 883.28,-140.99"/>
<polygon fill="black" stroke="black" points="879.78,-140.99 883.28,-150.99 886.78,-140.99 879.78,-140.99"/>
</g>
<!-- ProjectsComponent -->
<g id="node7" class="node">
<title>ProjectsComponent</title>
<polygon fill="#ffffb3" stroke="black" points="853.43,-122 726.57,-122 726.57,-86 853.43,-86 853.43,-122"/>
<text text-anchor="middle" x="790" y="-99.8" font-family="Times,serif" font-size="14.00">ProjectsComponent</text>
</g>
<!-- ProjectsComponent&#45;&gt;AppModule -->
<g id="edge7" class="edge">
<title>ProjectsComponent&#45;&gt;AppModule</title>
<path fill="none" stroke="black" d="M832.69,-122.11C832.69,-122.11 832.69,-140.99 832.69,-140.99"/>
<polygon fill="black" stroke="black" points="829.19,-140.99 832.69,-150.99 836.19,-140.99 829.19,-140.99"/>
</g>
<!-- SelectItemDirective -->
<g id="node8" class="node">
<title>SelectItemDirective</title>
<polygon fill="#ffffb3" stroke="black" points="708.95,-122 581.05,-122 581.05,-86 708.95,-86 708.95,-122"/>
<text text-anchor="middle" x="645" y="-99.8" font-family="Times,serif" font-size="14.00">SelectItemDirective</text>
</g>
<!-- SelectItemDirective&#45;&gt;AppModule -->
<g id="edge8" class="edge">
<title>SelectItemDirective&#45;&gt;AppModule</title>
<path fill="none" stroke="black" d="M645,-122.24C645,-137.57 645,-157 645,-157 645,-157 802.21,-157 802.21,-157"/>
<polygon fill="black" stroke="black" points="802.21,-160.5 812.21,-157 802.21,-153.5 802.21,-160.5"/>
</g>
<!-- SidebarComponent -->
<g id="node9" class="node">
<title>SidebarComponent</title>
<polygon fill="#ffffb3" stroke="black" points="563.1,-122 438.9,-122 438.9,-86 563.1,-86 563.1,-122"/>
<text text-anchor="middle" x="501" y="-99.8" font-family="Times,serif" font-size="14.00">SidebarComponent</text>
</g>
<!-- SidebarComponent&#45;&gt;AppModule -->
<g id="edge9" class="edge">
<title>SidebarComponent&#45;&gt;AppModule</title>
<path fill="none" stroke="black" d="M501,-122.02C501,-139.37 501,-163 501,-163 501,-163 802.12,-163 802.12,-163"/>
<polygon fill="black" stroke="black" points="802.12,-166.5 812.12,-163 802.12,-159.5 802.12,-166.5"/>
</g>
<!-- SkillsComponent -->
<g id="node10" class="node">
<title>SkillsComponent</title>
<polygon fill="#ffffb3" stroke="black" points="420.73,-122 307.27,-122 307.27,-86 420.73,-86 420.73,-122"/>
<text text-anchor="middle" x="364" y="-99.8" font-family="Times,serif" font-size="14.00">SkillsComponent</text>
</g>
<!-- SkillsComponent&#45;&gt;AppModule -->
<g id="edge10" class="edge">
<title>SkillsComponent&#45;&gt;AppModule</title>
<path fill="none" stroke="black" d="M364,-122.11C364,-141.34 364,-169 364,-169 364,-169 802.22,-169 802.22,-169"/>
<polygon fill="black" stroke="black" points="802.22,-172.5 812.22,-169 802.22,-165.5 802.22,-172.5"/>
</g>
<!-- WorkComponent -->
<g id="node11" class="node">
<title>WorkComponent</title>
<polygon fill="#ffffb3" stroke="black" points="289.71,-122 176.29,-122 176.29,-86 289.71,-86 289.71,-122"/>
<text text-anchor="middle" x="233" y="-99.8" font-family="Times,serif" font-size="14.00">WorkComponent</text>
</g>
<!-- WorkComponent&#45;&gt;AppModule -->
<g id="edge11" class="edge">
<title>WorkComponent&#45;&gt;AppModule</title>
<path fill="none" stroke="black" d="M233,-122.28C233,-143.32 233,-175 233,-175 233,-175 802.29,-175 802.29,-175"/>
<polygon fill="black" stroke="black" points="802.29,-178.5 812.29,-175 802.29,-171.5 802.29,-178.5"/>
</g>
<!-- AppComponent  -->
<g id="node14" class="node">
<title>AppComponent </title>
<polygon fill="#80b1d3" stroke="black" points="908.44,-252 799.56,-252 799.56,-216 908.44,-216 908.44,-252"/>
<text text-anchor="middle" x="854" y="-229.8" font-family="Times,serif" font-size="14.00">AppComponent </text>
</g>
<!-- AppModule&#45;&gt;AppComponent  -->
<g id="edge13" class="edge">
<title>AppModule&#45;&gt;AppComponent </title>
<path fill="none" stroke="black" stroke-dasharray="1,5" d="M854,-187.11C854,-187.11 854,-205.99 854,-205.99"/>
<polygon fill="black" stroke="black" points="850.5,-205.99 854,-215.99 857.5,-205.99 850.5,-205.99"/>
</g>
<!-- AppRoutingModule -->
<g id="node13" class="node">
<title>AppRoutingModule</title>
<polygon fill="#8dd3c7" stroke="black" points="152.27,-122 149.27,-126 128.27,-126 125.27,-122 23.73,-122 23.73,-86 152.27,-86 152.27,-122"/>
<text text-anchor="middle" x="88" y="-99.8" font-family="Times,serif" font-size="14.00">AppRoutingModule</text>
</g>
<!-- AppRoutingModule&#45;&gt;AppModule -->
<g id="edge12" class="edge">
<title>AppRoutingModule&#45;&gt;AppModule</title>
<path fill="none" stroke="black" d="M88,-122.25C88,-145.02 88,-181 88,-181 88,-181 802.27,-181 802.27,-181"/>
<polygon fill="black" stroke="black" points="802.27,-184.5 812.27,-181 802.27,-177.5 802.27,-184.5"/>
</g>
</g>
</svg>
