<?xml version="1.0" encoding="UTF-8" standalone="no"?>
<!DOCTYPE svg PUBLIC "-//W3C//DTD SVG 1.1//EN"
 "http://www.w3.org/Graphics/SVG/1.1/DTD/svg11.dtd">
<!-- Generated by graphviz version 2.47.0 (20210316.0004)
 -->
<!-- Title: dependencies Pages: 1 -->
<svg width="1401pt" height="360pt"
 viewBox="0.00 0.00 1401.00 360.00" xmlns="http://www.w3.org/2000/svg" xmlns:xlink="http://www.w3.org/1999/xlink">
<g id="graph0" class="graph" transform="scale(1 1) rotate(0) translate(4 356)">
<title>dependencies</title>
<polygon fill="white" stroke="transparent" points="-4,4 -4,-356 1397,-356 1397,4 -4,4"/>
<text text-anchor="start" x="675.51" y="-42.4" font-family="sans-serif" font-weight="bold" font-size="14.00">Legend</text>
<polygon fill="#ffffb3" stroke="transparent" points="462.5,-10 462.5,-30 482.5,-30 482.5,-10 462.5,-10"/>
<text text-anchor="start" x="486.13" y="-15.4" font-family="sans-serif" font-size="14.00"> &#160;Declarations</text>
<polygon fill="#8dd3c7" stroke="transparent" points="575.5,-10 575.5,-30 595.5,-30 595.5,-10 575.5,-10"/>
<text text-anchor="start" x="599.23" y="-15.4" font-family="sans-serif" font-size="14.00"> &#160;Module</text>
<polygon fill="#80b1d3" stroke="transparent" points="661.5,-10 661.5,-30 681.5,-30 681.5,-10 661.5,-10"/>
<text text-anchor="start" x="685.28" y="-15.4" font-family="sans-serif" font-size="14.00"> &#160;Bootstrap</text>
<polygon fill="#fdb462" stroke="transparent" points="758.5,-10 758.5,-30 778.5,-30 778.5,-10 758.5,-10"/>
<text text-anchor="start" x="782.17" y="-15.4" font-family="sans-serif" font-size="14.00"> &#160;Providers</text>
<polygon fill="#fb8072" stroke="transparent" points="854.5,-10 854.5,-30 874.5,-30 874.5,-10 854.5,-10"/>
<text text-anchor="start" x="878.23" y="-15.4" font-family="sans-serif" font-size="14.00"> &#160;Exports</text>
<g id="clust1" class="cluster">
<title>cluster_AppModule</title>
<polygon fill="none" stroke="black" stroke-dasharray="1,5" points="32,-146 32,-344 1385,-344 1385,-146 32,-146"/>
</g>
<g id="clust2" class="cluster">
<title>cluster_AppModule_declarations</title>
<polygon fill="none" stroke="black" points="309,-154 309,-206 1377,-206 1377,-154 309,-154"/>
</g>
<g id="clust11" class="cluster">
<title>cluster_AppModule_imports</title>
<polygon fill="none" stroke="black" points="40,-154 40,-206 301,-206 301,-154 40,-154"/>
</g>
<g id="clust13" class="cluster">
<title>cluster_AppModule_bootstrap</title>
<polygon fill="none" stroke="black" points="651,-284 651,-336 775,-336 775,-284 651,-284"/>
</g>
<g id="clust21" class="cluster">
<title>cluster_SharedModule</title>
<polygon fill="none" stroke="black" stroke-dasharray="1,5" points="8,-70 8,-138 186,-138 186,-70 8,-70"/>
</g>
<g id="clust22" class="cluster">
<title>cluster_SharedModule_declarations</title>
<polygon fill="none" stroke="black" points="16,-78 16,-130 178,-130 178,-78 16,-78"/>
</g>
<!-- AboutMeComponent -->
<g id="node1" class="node">
<title>AboutMeComponent</title>
<polygon fill="#ffffb3" stroke="black" points="1369.49,-198 1234.51,-198 1234.51,-162 1369.49,-162 1369.49,-198"/>
<text text-anchor="middle" x="1302" y="-175.8" font-family="Times,serif" font-size="14.00">AboutMeComponent</text>
</g>
<!-- AppModule -->
<g id="node9" class="node">
<title>AppModule</title>
<polygon fill="#8dd3c7" stroke="black" points="754.66,-263 751.66,-267 730.66,-267 727.66,-263 671.34,-263 671.34,-227 754.66,-227 754.66,-263"/>
<text text-anchor="middle" x="713" y="-240.8" font-family="Times,serif" font-size="14.00">AppModule</text>
</g>
<!-- AboutMeComponent&#45;&gt;AppModule -->
<g id="edge1" class="edge">
<title>AboutMeComponent&#45;&gt;AppModule</title>
<path fill="none" stroke="black" d="M1302,-198.01C1302,-220.49 1302,-256 1302,-256 1302,-256 764.89,-256 764.89,-256"/>
<polygon fill="black" stroke="black" points="764.89,-252.5 754.89,-256 764.89,-259.5 764.89,-252.5"/>
</g>
<!-- AppComponent -->
<g id="node2" class="node">
<title>AppComponent</title>
<polygon fill="#ffffb3" stroke="black" points="1216.94,-198 1111.06,-198 1111.06,-162 1216.94,-162 1216.94,-198"/>
<text text-anchor="middle" x="1164" y="-175.8" font-family="Times,serif" font-size="14.00">AppComponent</text>
</g>
<!-- AppComponent&#45;&gt;AppModule -->
<g id="edge2" class="edge">
<title>AppComponent&#45;&gt;AppModule</title>
<path fill="none" stroke="black" d="M1164,-198.13C1164,-218.57 1164,-249 1164,-249 1164,-249 765.02,-249 765.02,-249"/>
<polygon fill="black" stroke="black" points="765.02,-245.5 755.02,-249 765.02,-252.5 765.02,-245.5"/>
</g>
<!-- HomeComponent -->
<g id="node3" class="node">
<title>HomeComponent</title>
<polygon fill="#ffffb3" stroke="black" points="1093.55,-198 978.45,-198 978.45,-162 1093.55,-162 1093.55,-198"/>
<text text-anchor="middle" x="1036" y="-175.8" font-family="Times,serif" font-size="14.00">HomeComponent</text>
</g>
<!-- HomeComponent&#45;&gt;AppModule -->
<g id="edge3" class="edge">
<title>HomeComponent&#45;&gt;AppModule</title>
<path fill="none" stroke="black" d="M1036,-198.27C1036,-216.56 1036,-242 1036,-242 1036,-242 764.9,-242 764.9,-242"/>
<polygon fill="black" stroke="black" points="764.9,-238.5 754.9,-242 764.9,-245.5 764.9,-238.5"/>
</g>
<!-- LinkDirective -->
<g id="node4" class="node">
<title>LinkDirective</title>
<polygon fill="#ffffb3" stroke="black" points="960.03,-198 865.97,-198 865.97,-162 960.03,-162 960.03,-198"/>
<text text-anchor="middle" x="913" y="-175.8" font-family="Times,serif" font-size="14.00">LinkDirective</text>
</g>
<!-- LinkDirective&#45;&gt;AppModule -->
<g id="edge4" class="edge">
<title>LinkDirective&#45;&gt;AppModule</title>
<path fill="none" stroke="black" d="M913,-198.01C913,-214.05 913,-235 913,-235 913,-235 764.93,-235 764.93,-235"/>
<polygon fill="black" stroke="black" points="764.93,-231.5 754.93,-235 764.93,-238.5 764.93,-231.5"/>
</g>
<!-- ProjectsComponent -->
<g id="node5" class="node">
<title>ProjectsComponent</title>
<polygon fill="#ffffb3" stroke="black" points="848.43,-198 721.57,-198 721.57,-162 848.43,-162 848.43,-198"/>
<text text-anchor="middle" x="785" y="-175.8" font-family="Times,serif" font-size="14.00">ProjectsComponent</text>
</g>
<!-- ProjectsComponent&#45;&gt;AppModule -->
<g id="edge5" class="edge">
<title>ProjectsComponent&#45;&gt;AppModule</title>
<path fill="none" stroke="black" d="M738.31,-198.11C738.31,-198.11 738.31,-216.99 738.31,-216.99"/>
<polygon fill="black" stroke="black" points="734.81,-216.99 738.31,-226.99 741.81,-216.99 734.81,-216.99"/>
</g>
<!-- SidebarComponent -->
<g id="node6" class="node">
<title>SidebarComponent</title>
<polygon fill="#ffffb3" stroke="black" points="704.1,-198 579.9,-198 579.9,-162 704.1,-162 704.1,-198"/>
<text text-anchor="middle" x="642" y="-175.8" font-family="Times,serif" font-size="14.00">SidebarComponent</text>
</g>
<!-- SidebarComponent&#45;&gt;AppModule -->
<g id="edge6" class="edge">
<title>SidebarComponent&#45;&gt;AppModule</title>
<path fill="none" stroke="black" d="M687.61,-198.11C687.61,-198.11 687.61,-216.99 687.61,-216.99"/>
<polygon fill="black" stroke="black" points="684.11,-216.99 687.61,-226.99 691.11,-216.99 684.11,-216.99"/>
</g>
<!-- SkillsComponent -->
<g id="node7" class="node">
<title>SkillsComponent</title>
<polygon fill="#ffffb3" stroke="black" points="561.73,-198 448.27,-198 448.27,-162 561.73,-162 561.73,-198"/>
<text text-anchor="middle" x="505" y="-175.8" font-family="Times,serif" font-size="14.00">SkillsComponent</text>
</g>
<!-- SkillsComponent&#45;&gt;AppModule -->
<g id="edge7" class="edge">
<title>SkillsComponent&#45;&gt;AppModule</title>
<path fill="none" stroke="black" d="M505,-198.01C505,-214.05 505,-235 505,-235 505,-235 660.91,-235 660.91,-235"/>
<polygon fill="black" stroke="black" points="660.91,-238.5 670.91,-235 660.91,-231.5 660.91,-238.5"/>
</g>
<!-- WorkComponent -->
<g id="node8" class="node">
<title>WorkComponent</title>
<polygon fill="#ffffb3" stroke="black" points="430.71,-198 317.29,-198 317.29,-162 430.71,-162 430.71,-198"/>
<text text-anchor="middle" x="374" y="-175.8" font-family="Times,serif" font-size="14.00">WorkComponent</text>
</g>
<!-- WorkComponent&#45;&gt;AppModule -->
<g id="edge8" class="edge">
<title>WorkComponent&#45;&gt;AppModule</title>
<path fill="none" stroke="black" d="M374,-198.27C374,-216.56 374,-242 374,-242 374,-242 661.09,-242 661.09,-242"/>
<polygon fill="black" stroke="black" points="661.09,-245.5 671.09,-242 661.09,-238.5 661.09,-245.5"/>
</g>
<!-- AppComponent  -->
<g id="node12" class="node">
<title>AppComponent </title>
<polygon fill="#80b1d3" stroke="black" points="767.44,-328 658.56,-328 658.56,-292 767.44,-292 767.44,-328"/>
<text text-anchor="middle" x="713" y="-305.8" font-family="Times,serif" font-size="14.00">AppComponent </text>
</g>
<!-- AppModule&#45;&gt;AppComponent  -->
<g id="edge11" class="edge">
<title>AppModule&#45;&gt;AppComponent </title>
<path fill="none" stroke="black" stroke-dasharray="1,5" d="M713,-263.11C713,-263.11 713,-281.99 713,-281.99"/>
<polygon fill="black" stroke="black" points="709.5,-281.99 713,-291.99 716.5,-281.99 709.5,-281.99"/>
</g>
<!-- AppRoutingModule -->
<g id="node10" class="node">
<title>AppRoutingModule</title>
<polygon fill="#8dd3c7" stroke="black" points="293.27,-198 290.27,-202 269.27,-202 266.27,-198 164.73,-198 164.73,-162 293.27,-162 293.27,-198"/>
<text text-anchor="middle" x="229" y="-175.8" font-family="Times,serif" font-size="14.00">AppRoutingModule</text>
</g>
<!-- AppRoutingModule&#45;&gt;AppModule -->
<g id="edge9" class="edge">
<title>AppRoutingModule&#45;&gt;AppModule</title>
<path fill="none" stroke="black" d="M229,-198.13C229,-218.57 229,-249 229,-249 229,-249 661.32,-249 661.32,-249"/>
<polygon fill="black" stroke="black" points="661.32,-252.5 671.32,-249 661.32,-245.5 661.32,-252.5"/>
</g>
<!-- SharedModule -->
<g id="node11" class="node">
<title>SharedModule</title>
<polygon fill="#8dd3c7" stroke="black" points="146.42,-198 143.42,-202 122.42,-202 119.42,-198 47.58,-198 47.58,-162 146.42,-162 146.42,-198"/>
<text text-anchor="middle" x="97" y="-175.8" font-family="Times,serif" font-size="14.00">SharedModule</text>
</g>
<!-- SharedModule&#45;&gt;AppModule -->
<g id="edge10" class="edge">
<title>SharedModule&#45;&gt;AppModule</title>
<path fill="none" stroke="black" d="M97,-198.01C97,-220.49 97,-256 97,-256 97,-256 661.14,-256 661.14,-256"/>
<polygon fill="black" stroke="black" points="661.14,-259.5 671.14,-256 661.14,-252.5 661.14,-259.5"/>
</g>
<!-- CustomListComponent -->
<g id="node13" class="node">
<title>CustomListComponent</title>
<polygon fill="#ffffb3" stroke="black" points="170.17,-122 23.83,-122 23.83,-86 170.17,-86 170.17,-122"/>
<text text-anchor="middle" x="97" y="-99.8" font-family="Times,serif" font-size="14.00">CustomListComponent</text>
</g>
<!-- CustomListComponent&#45;&gt;SharedModule -->
<g id="edge12" class="edge">
<title>CustomListComponent&#45;&gt;SharedModule</title>
<path fill="none" stroke="black" d="M97,-122.01C97,-122.01 97,-151.85 97,-151.85"/>
<polygon fill="black" stroke="black" points="93.5,-151.85 97,-161.85 100.5,-151.85 93.5,-151.85"/>
</g>
</g>
</svg>
